# xmcd
#
# Track frame offsets: 
#        150
#        11146
#        22294
#        37796
#        48720
#        60873
#        75616
#        90729
#        100571
#        112552
#        123790
#        137970
#        148241
#        163062
#        174762
#        185856
#        197478
#        209387
#        221652
#        235338
#        246552
#        260721
#        272013
#        283954
#        297088
#        309977
#        322897
#        333220
#        343866
#        356622
#        370084
#        380519
#        394142
#
# Disc length: 5434 seconds
#
# Revision: 0
# Processed by: cddbd v1.5.2PL0 Copyright (c) Steve Scherf et al.
# Submitted via: ExactAudioCopy v1.0b3
#
DISCID=f7153821
DTITLE=Tennessee Ernie Ford - Portrate Of An American Singer_CD1
DYEAR=2015
DGENRE=Country
TTITLE0=I've Got The Milk 'Em In The Morning Blues
TTITLE1=Tennessee Border
TTITLE2=Philadelphia Lawyer
TTITLE3=Country Junction
TTITLE4=Smokey Mountain Boogie
TTITLE5=You'll Find Her Name Written There
TTITLE6=Put Your Arms Around Me
TTITLE7=Anticipation Blues
TTITLE8=Blues Stay Away From Me*
TTITLE9=Philosophy
TTITLE10=Mule Train
TTITLE11=The Donkey Serenade
TTITLE12=The Cry Of The Wild Goose
TTITLE13=My Hobby
TTITLE14=I've Got The Feed 'Em In The Mornin' (Change 'Em) Feed 'Em In
TTITLE14=The Evenin' Blues
TTITLE15=Slow Down
TTITLE16=I'll Never Be Free
TTITLE17=Ain't Nobody's Business But My Own
TTITLE18=The Lord's Lariat
TTITLE19=What This Country Needs (Is A Good Old Fashioned Talk With Th
TTITLE19=e Lord)
TTITLE20=Bright Lights And Blonde Haired Women
TTITLE21=I Ain't Let It Happen No More
TTITLE22=The Shotgun Boogie
TTITLE23=The Blue Canadian Rockies
TTITLE24=It's The Talk Of The Town
TTITLE25=Cincinnati Dancing Pig
TTITLE26=Leetle Juan Pedro
TTITLE27=Tailor Made Woman
TTITLE28=Stack-O-Lee
TTITLE29=I'm A Bad Man
TTITLE30=You Can Tell A Texan Everytime
TTITLE31=The Strange Little Girl
TTITLE32=Kentucky Waltz
EXTD=
EXTT0=
EXTT1=
EXTT2=
EXTT3=
EXTT4=
EXTT5=
EXTT6=
EXTT7=
EXTT8=
EXTT9=
EXTT10=
EXTT11=
EXTT12=
EXTT13=
EXTT14=
EXTT15=
EXTT16=
EXTT17=
EXTT18=
EXTT19=
EXTT20=
EXTT21=
EXTT22=
EXTT23=
EXTT24=
EXTT25=
EXTT26=
EXTT27=
EXTT28=
EXTT29=
EXTT30=
EXTT31=
EXTT32=
PLAYORDER=
